<svg width="1280" height="360" viewBox="0 0 1280 360" fill="none" xmlns="http://www.w3.org/2000/svg" role="img" aria-labelledby="title desc">
  <title id="title">Issam Sayyaf — Sensor Intelligence, TinyML and Edge AI</title>
  <desc id="desc">A professional red, white and charcoal banner featuring a stylized sensor waveform.</desc>

  <style>
    .bg { fill: #F8FAFC; }
    .panel { fill: #FFFFFF; stroke: #E5E7EB; }
    .grid { stroke: #111827; opacity: .055; }
    .name { fill: #111827; font: 800 64px Inter, "Segoe UI", Arial, sans-serif; letter-spacing: 1px; }
    .role { fill: #374151; font: 600 23px Inter, "Segoe UI", Arial, sans-serif; letter-spacing: 2.4px; }
    .meta { fill: #6B7280; font: 500 17px Inter, "Segoe UI", Arial, sans-serif; letter-spacing: .4px; }
    .signal-label { fill: #4B5563; font: 700 14px Inter, "Segoe UI", Arial, sans-serif; letter-spacing: 2.2px; }
    @media (prefers-color-scheme: dark) {
      .bg { fill: #090C12; }
      .panel { fill: #0F141D; stroke: #252D3A; }
      .grid { stroke: #FFFFFF; opacity: .05; }
      .name { fill: #F8FAFC; }
      .role { fill: #D1D5DB; }
      .meta { fill: #9CA3AF; }
      .signal-label { fill: #9CA3AF; }
    }
  </style>

  <rect class="bg" width="1280" height="360" rx="26" />
  <rect class="panel" x="1" y="1" width="1278" height="358" rx="25" />

  <g class="grid">
    <path d="M0 72H1280M0 144H1280M0 216H1280M0 288H1280" />
    <path d="M80 0V360M160 0V360M240 0V360M320 0V360M400 0V360M480 0V360M560 0V360M640 0V360M720 0V360M800 0V360M880 0V360M960 0V360M1040 0V360M1120 0V360M1200 0V360" />
  </g>

  <rect x="0" y="0" width="15" height="360" rx="7.5" fill="#E60012" />
  <circle cx="85" cy="74" r="9" fill="#E60012" />
  <text x="110" y="80" class="signal-label">SENSOR ALGORITHMS · EDGE INTELLIGENCE</text>

  <text x="78" y="174" class="name">ISSAM SAYYAF</text>
  <text x="82" y="220" class="role">SIGNAL PROCESSING · TINYML · EMBEDDED AI</text>
  <text x="82" y="268" class="meta">Senior Software Algorithms Engineer · TDK InvenSense · Grenoble, France</text>

  <g transform="translate(936 84)">
    <circle cx="128" cy="96" r="92" stroke="#E60012" stroke-width="2" opacity=".18" />
    <circle cx="128" cy="96" r="68" stroke="#E60012" stroke-width="2" opacity=".26" />
    <circle cx="128" cy="96" r="44" stroke="#E60012" stroke-width="2" opacity=".36" />
    <circle cx="128" cy="96" r="8" fill="#E60012" />
    <path d="M8 96H36L52 96L65 70L80 122L95 42L112 151L128 96L145 96L160 72L176 121L190 83L204 96H248" stroke="#E60012" stroke-width="6" stroke-linecap="round" stroke-linejoin="round" />
    <circle cx="8" cy="96" r="5" fill="#E60012" />
    <circle cx="248" cy="96" r="5" fill="#E60012" />
  </g>

  <rect x="82" y="306" width="188" height="4" rx="2" fill="#E60012" />
  <rect x="279" y="306" width="48" height="4" rx="2" fill="#E60012" opacity=".45" />
</svg>
